<svg id="visual" viewBox="0 0 960 540" width="960" height="540" xmlns="http://www.w3.org/2000/svg" xmlns:xlink="http://www.w3.org/1999/xlink" version="1.1"><g transform="translate(1011.4433236939293 24.194052789483862)"><path d="M152.3 -315C191 -241.5 211.6 -187.8 262.3 -138.6C313.1 -89.3 394 -44.7 429 20.2C463.9 85 452.8 170 416.5 244.3C380.3 318.7 318.9 382.3 245.3 404.5C171.7 426.7 85.8 407.3 -0.3 407.9C-86.5 408.5 -173 429 -256.4 412.5C-339.9 396 -420.2 342.5 -478.2 267.6C-536.2 192.7 -571.9 96.3 -542.6 16.9C-513.3 -62.5 -419 -125 -336.7 -157.9C-254.5 -190.8 -184.2 -194 -130.1 -258.6C-75.9 -323.2 -38 -449.1 9.4 -465.4C56.8 -481.8 113.7 -388.5 152.3 -315" fill="#040D21"></path></g></svg>